<?xml version="1.0" standalone="no"?>
<!DOCTYPE svg PUBLIC "-//W3C//DTD SVG 20010904//EN"
 "http://www.w3.org/TR/2001/REC-SVG-20010904/DTD/svg10.dtd">
<svg version="1.0" xmlns="http://www.w3.org/2000/svg"
 width="517.000000pt" height="469.000000pt" viewBox="0 0 517.000000 469.000000"
 preserveAspectRatio="xMidYMid meet">

<g transform="translate(0.000000,469.000000) scale(0.100000,-0.100000)"
fill="#000000" stroke="none">
<path d="M2525 4508 c-27 -15 -35 -28 -35 -60 0 -35 39 -63 75 -54 52 13 59
92 10 114 -30 14 -25 14 -50 0z"/>
<path d="M2222 4426 c-61 -33 -83 -137 -41 -190 42 -54 107 -70 163 -41 29 16
31 15 70 -24 44 -44 43 -35 9 -128 -4 -10 19 -13 94 -13 l99 0 54 -57 c151
-158 144 -149 142 -196 -3 -52 22 -80 70 -80 38 0 68 32 68 73 0 36 -44 73
-78 67 -19 -4 -40 15 -123 108 -81 92 -107 114 -135 119 -19 4 -38 4 -43 1 -5
-3 -16 -2 -25 1 -14 5 -14 9 2 36 26 45 103 113 161 142 81 42 165 59 251 53
254 -18 453 -221 453 -462 0 -49 -7 -97 -17 -124 -9 -24 -16 -45 -16 -47 0
-11 44 -1 93 21 192 88 438 -6 535 -205 63 -129 64 -253 2 -374 -17 -33 -29
-60 -28 -61 2 -1 32 -17 67 -36 43 -22 76 -49 100 -81 33 -43 40 -47 79 -47
23 -1 42 2 42 6 0 19 -69 110 -116 151 l-53 47 19 55 c27 77 27 216 0 302 -71
230 -307 386 -545 362 l-65 -7 0 44 c-1 132 -63 272 -170 380 -114 116 -243
169 -410 169 -156 0 -279 -49 -388 -156 l-66 -64 -36 35 c-35 34 -36 39 -32
89 5 63 -15 109 -58 131 -35 18 -97 19 -128 1z m99 -57 c31 -16 42 -55 24 -89
-20 -39 -59 -49 -93 -23 -71 52 -8 154 69 112z"/>
<path d="M1830 4350 c-22 -22 -26 -60 -10 -90 8 -15 4 -33 -20 -80 -26 -52
-34 -60 -59 -60 -16 0 -34 -6 -40 -14 -19 -23 -112 22 -124 60 -21 64 -68 83
-107 44 -24 -24 -26 -57 -5 -87 13 -19 12 -29 -15 -109 -33 -97 -46 -117 -60
-94 -20 32 -22 88 -5 114 22 33 13 70 -20 92 -21 14 -30 14 -55 4 -55 -23 -48
-106 9 -120 18 -4 27 -17 38 -53 13 -46 13 -49 -9 -68 -17 -14 -32 -18 -58
-14 -19 2 -42 5 -50 5 -9 0 -21 13 -27 30 -14 37 -53 49 -89 25 -21 -13 -25
-23 -22 -53 2 -31 9 -40 37 -54 30 -15 40 -30 74 -114 52 -131 49 -134 -102
-100 -124 28 -131 31 -131 51 0 21 -29 45 -56 45 -55 0 -83 -71 -44 -110 25
-25 60 -26 91 -2 23 19 26 18 129 -5 94 -21 131 -36 119 -47 -2 -2 -50 -29
-106 -61 -100 -55 -103 -56 -139 -43 -34 12 -37 12 -60 -15 -13 -16 -24 -34
-24 -41 0 -20 -83 -36 -106 -19 -44 32 -104 3 -104 -50 0 -35 25 -57 65 -57
28 0 40 -9 84 -62 28 -35 51 -68 51 -74 0 -6 -23 -14 -52 -17 -47 -6 -55 -4
-78 18 -48 46 -110 22 -110 -43 0 -21 7 -36 22 -46 33 -23 57 -20 87 13 29 31
96 48 121 31 12 -8 4 -20 -45 -65 -53 -48 -64 -54 -92 -50 -59 10 -93 -52 -57
-103 21 -31 67 -29 92 3 19 24 23 25 96 18 83 -7 95 -19 54 -53 -18 -14 -34
-17 -68 -13 -53 6 -73 -10 -73 -59 0 -54 63 -78 103 -38 11 11 20 31 20 44 0
16 11 32 30 46 49 35 60 22 60 -67 0 -68 -3 -81 -22 -97 -21 -19 -24 -19 -95
-1 -45 11 -73 23 -73 32 0 19 -37 53 -58 53 -26 0 -62 -37 -62 -63 0 -55 66
-81 108 -44 18 16 23 16 87 0 54 -15 69 -23 77 -43 5 -13 15 -28 21 -32 20
-13 69 -9 87 7 14 13 23 13 68 1 29 -7 55 -16 58 -19 17 -16 -16 -46 -89 -84
-65 -32 -86 -39 -101 -31 -10 6 -31 7 -48 4 -39 -8 -88 25 -88 60 0 28 -32 64
-58 64 -34 0 -62 -29 -62 -65 0 -53 54 -82 100 -53 16 10 23 9 45 -12 34 -32
22 -41 -78 -61 -70 -14 -84 -15 -98 -3 -8 8 -28 14 -42 14 -20 0 -27 5 -27 19
0 49 -76 70 -104 29 -9 -12 -16 -30 -16 -40 0 -28 37 -58 70 -58 38 0 41 -30
6 -53 -22 -15 -25 -14 -47 9 -27 29 -62 31 -89 4 -50 -50 6 -120 75 -94 8 4
22 19 31 35 17 34 55 46 91 30 22 -10 29 -9 49 10 13 13 24 30 24 40 0 10 8
20 18 23 47 13 143 28 149 22 9 -8 -52 -61 -100 -87 -24 -12 -42 -31 -49 -50
-6 -16 -23 -36 -39 -44 -34 -18 -39 -18 -39 -2 0 9 -12 11 -40 9 -30 -3 -45
-11 -61 -33 -25 -35 -58 -38 -98 -8 -34 25 -64 19 -87 -16 -21 -32 -9 -70 26
-85 34 -14 67 0 80 34 11 30 58 40 83 19 22 -21 22 -26 -5 -38 -30 -14 -42
-37 -34 -68 9 -37 40 -52 76 -37 35 14 44 45 25 84 -19 36 -19 36 3 36 33 0
54 -34 46 -74 -3 -20 -1 -48 5 -64 16 -40 -8 -115 -40 -122 -63 -15 -56 -112
9 -118 18 -2 40 2 48 9 15 13 82 -1 136 -28 39 -19 36 -45 -13 -120 -37 -57
-45 -63 -75 -63 -62 0 -85 -86 -29 -112 19 -8 24 -21 30 -71 6 -56 5 -62 -19
-84 -47 -43 -24 -113 36 -113 30 0 58 28 58 58 0 15 12 28 43 43 23 12 67 37
97 57 42 27 58 32 71 24 9 -6 27 -8 39 -5 16 4 31 -4 61 -33 33 -32 39 -43 33
-67 -4 -18 0 -37 11 -53 23 -36 83 -31 104 8 14 25 14 29 -5 55 -15 20 -30 28
-53 29 -24 0 -43 11 -74 42 -56 56 -45 66 62 56 74 -6 84 -9 99 -33 22 -34 32
-41 64 -41 17 0 34 9 46 25 l20 26 89 -17 c82 -15 89 -18 103 -47 17 -35 54
-46 90 -27 17 9 21 19 18 53 -2 34 -8 44 -30 55 -28 13 -63 4 -79 -20 -3 -5
-45 -2 -98 8 -77 15 -96 22 -110 44 -17 24 -17 28 12 116 23 73 34 94 54 103
22 10 31 7 74 -25 42 -30 49 -41 49 -69 0 -48 24 -68 73 -62 36 5 47 1 112
-47 69 -52 71 -55 70 -95 -1 -53 -51 -105 -91 -95 -55 14 -98 -71 -56 -109 46
-41 119 -2 108 57 -5 27 -1 37 27 64 27 26 39 31 63 26 43 -8 77 22 76 67 -1
24 7 42 25 61 22 24 32 26 67 22 57 -8 90 18 90 71 0 69 -71 99 -120 49 -20
-20 -25 -33 -22 -60 3 -28 -1 -39 -26 -62 -26 -22 -40 -27 -81 -26 -44 1 -59
7 -122 53 -60 44 -72 57 -67 75 3 14 -3 32 -17 50 -19 25 -26 27 -63 22 -36
-5 -47 -1 -89 29 -75 56 -62 65 149 105 171 33 177 33 190 15 24 -33 17 -60
-23 -86 -32 -20 -39 -31 -41 -62 -4 -49 19 -77 63 -77 70 0 99 80 46 129 -22
20 -26 31 -20 48 6 15 14 20 28 16 12 -3 31 2 44 10 22 14 28 13 87 -19 l64
-34 247 0 247 0 92 -99 c79 -87 90 -103 81 -120 -25 -47 -4 -109 37 -112 57
-4 84 21 80 75 -3 36 -8 43 -38 58 -30 15 -190 176 -190 192 0 3 44 6 98 6
l97 0 77 -77 c60 -60 75 -81 68 -93 -25 -40 1 -118 47 -139 76 -35 153 16 153
100 0 22 -10 41 -35 66 -34 34 -38 35 -89 29 l-53 -6 -77 80 -76 80 -393 0
-392 0 -52 30 c-37 21 -53 37 -53 51 0 50 -49 81 -91 59 -17 -10 -31 -1 -108
69 -82 75 -87 82 -83 114 7 65 -66 101 -117 59 -23 -18 -30 -59 -17 -98 5 -15
-10 -50 -56 -128 -74 -126 -90 -133 -113 -52 -16 53 -15 56 4 75 45 45 16 121
-46 121 -31 0 -30 27 3 61 22 23 32 26 60 22 66 -11 109 62 64 107 -45 45
-129 2 -115 -60 9 -40 -33 -74 -93 -75 -41 0 -56 6 -114 48 -95 68 -93 77 32
161 88 58 103 65 122 55 17 -9 28 -8 56 7 l33 18 129 -42 c121 -40 128 -44
134 -72 11 -59 91 -64 117 -8 6 13 37 42 70 66 l59 42 628 0 627 0 293 292
292 291 0 201 0 200 48 -47 c34 -33 54 -46 65 -41 31 12 17 39 -62 124 l-79
85 -76 -75 c-84 -82 -96 -104 -72 -128 14 -15 20 -12 61 31 24 26 47 47 50 47
3 0 5 -87 5 -193 l0 -192 -273 -273 -272 -272 -619 0 -618 0 -65 -46 c-60 -43
-66 -45 -82 -30 -23 21 -53 20 -80 -2 -21 -16 -27 -16 -148 24 -122 39 -126
42 -137 75 -10 30 -16 34 -48 37 -31 3 -42 11 -71 51 -24 33 -32 53 -26 62 5
8 9 23 9 35 0 33 43 47 83 28 41 -20 84 -6 93 31 5 20 17 28 63 40 31 9 71 20
90 25 28 7 36 6 50 -10 26 -30 71 -30 99 0 17 18 23 19 75 9 43 -9 57 -16 57
-29 0 -34 35 -64 73 -64 49 0 77 27 77 75 0 29 -6 42 -26 58 -35 27 -66 26
-101 -3 -27 -22 -32 -23 -82 -14 -32 7 -55 17 -58 27 -11 31 -36 51 -63 51
-27 0 -60 -26 -60 -48 0 -6 -5 -14 -10 -17 -21 -13 -181 -52 -185 -45 -2 4 48
68 112 144 114 134 116 136 150 130 25 -5 39 -2 53 11 18 16 27 13 209 -66
184 -80 191 -84 191 -112 0 -40 49 -87 90 -87 45 0 90 47 90 95 0 74 -91 113
-152 65 l-25 -19 -186 82 c-179 77 -187 82 -187 109 0 15 -9 37 -21 49 l-21
21 24 91 c23 86 26 91 54 94 70 9 94 94 40 140 l-29 24 17 147 c10 81 18 156
19 167 4 45 30 14 72 -84 41 -96 43 -106 29 -122 -9 -10 -16 -34 -16 -55 0
-48 30 -78 76 -78 49 0 76 27 76 76 0 46 -28 78 -69 78 -27 0 -31 6 -75 112
-30 73 -43 115 -37 121 7 7 103 -35 278 -119 259 -126 268 -131 271 -161 4
-37 37 -71 78 -79 24 -4 37 0 62 21 27 23 32 34 32 70 0 35 -5 48 -26 64 -35
28 -91 27 -120 0 l-22 -21 -269 130 c-247 119 -268 131 -265 153 5 27 15 35
103 83 l66 36 37 -19 c29 -15 44 -17 69 -10 17 5 33 9 34 9 1 0 10 14 19 31
39 76 -38 155 -121 123 -20 -8 -45 -55 -45 -86 0 -18 -18 -33 -85 -70 -91 -51
-93 -52 -113 -39 -20 13 36 231 59 231 9 0 28 9 43 21 35 27 37 90 4 113 -32
22 -81 20 -103 -4 -23 -26 -23 -84 -1 -109 16 -17 15 -26 -10 -125 -35 -138
-45 -145 -108 -68 -36 44 -45 62 -41 81 4 13 1 37 -5 52 -10 24 -8 35 22 91
25 48 39 64 58 66 33 4 50 28 50 68 0 56 -61 83 -100 44z m-210 -255 c28 -14
50 -27 50 -29 0 -3 3 -11 6 -19 4 -10 -26 -34 -98 -80 -119 -76 -138 -85 -138
-65 0 30 57 182 71 188 8 4 23 12 34 18 11 6 21 11 23 11 1 1 25 -10 52 -24z
m140 -107 c19 1 35 -12 64 -49 66 -86 71 -84 -161 -87 -112 -1 -203 1 -203 5
0 5 48 38 108 75 89 56 112 66 137 62 17 -4 41 -6 55 -6z m-467 -138 c17 0 30
-7 34 -17 3 -10 12 -25 19 -33 24 -29 -47 -193 -72 -167 -3 3 -23 47 -44 99
-36 87 -38 94 -22 111 10 11 24 16 37 13 11 -3 33 -6 48 -6z m555 -31 c-4 -13
-499 -220 -510 -213 -13 8 -10 24 18 100 22 62 30 73 54 78 16 3 34 14 40 26
10 19 20 20 206 20 133 0 195 -3 192 -11z m43 -55 c10 -13 10 -42 -5 -167 -20
-177 -23 -187 -42 -187 -8 0 -23 -9 -34 -20 -20 -20 -20 -20 -95 17 -66 33
-75 41 -75 65 0 33 -36 75 -72 84 -38 8 -88 -41 -88 -86 0 -63 75 -101 127
-65 19 13 27 12 96 -19 66 -30 75 -38 81 -67 3 -18 14 -41 23 -51 15 -17 14
-24 -7 -105 -21 -83 -39 -113 -65 -113 -6 0 -61 62 -121 137 -60 76 -144 179
-186 230 -75 89 -77 94 -70 130 l8 37 234 97 c129 54 245 98 256 98 12 1 27
-6 35 -15z m-661 -249 c0 -3 -40 -59 -88 -123 -49 -64 -106 -143 -126 -174
-31 -47 -43 -56 -66 -56 -15 1 -32 -2 -38 -6 -6 -4 -27 11 -47 33 -68 75 -72
83 -63 117 7 27 13 32 50 37 28 4 48 1 58 -7 31 -28 58 -28 85 -2 14 14 25 35
25 48 0 18 20 34 98 80 95 56 112 64 112 53z m141 -64 c20 -25 104 -131 187
-234 145 -180 166 -218 123 -216 -9 0 -99 10 -201 23 -200 24 -214 30 -166 75
22 21 28 22 57 12 26 -9 37 -8 56 4 53 35 36 117 -26 123 -19 2 -40 -3 -50
-12 -21 -19 -61 -10 -61 13 0 26 -38 61 -65 61 -28 0 -65 -32 -65 -56 0 -24
18 -52 41 -64 16 -9 29 -7 61 10 31 16 43 18 54 9 21 -17 17 -53 -10 -78 -19
-18 -30 -21 -63 -15 -33 5 -45 2 -62 -15 -22 -22 -21 -22 -147 4 -11 3 -25 15
-31 28 -10 22 1 40 117 199 l129 175 43 0 c39 0 46 -3 79 -46z m-237 -401 c39
-14 32 -32 -30 -77 -49 -36 -59 -40 -83 -32 -39 14 -57 71 -34 106 15 23 21
25 69 19 29 -3 64 -10 78 -16z m-174 -66 c10 -29 9 -39 -5 -60 -16 -24 -19
-25 -88 -18 -40 4 -75 9 -79 11 -19 10 -4 32 53 80 59 49 63 51 85 36 13 -8
28 -30 34 -49z m553 13 c139 -18 181 -26 188 -39 7 -13 -17 -46 -110 -156
-112 -131 -121 -139 -150 -134 -37 5 -58 -9 -66 -47 -3 -15 -18 -34 -33 -43
-24 -14 -30 -14 -46 -2 -11 8 -32 14 -46 14 -23 0 -39 17 -104 111 -83 119
-94 139 -77 139 6 0 58 -16 116 -36 87 -30 105 -40 105 -57 0 -54 83 -79 114
-35 9 12 16 33 16 45 0 30 -34 63 -64 63 -20 0 -28 12 -55 75 -34 82 -37 95
-19 113 15 15 19 15 231 -11z m-234 -110 c18 -44 28 -84 23 -89 -4 -4 -57 9
-117 31 -140 49 -147 62 -68 124 l55 44 38 -14 c34 -14 41 -23 69 -96z m-160
-188 c46 -66 80 -123 77 -126 -3 -3 -31 -1 -62 6 -47 11 -57 17 -66 41 -5 16
-18 32 -28 35 -14 4 -18 20 -23 78 -8 119 -3 118 102 -34z m94 -253 c-4 -6
-31 -69 -59 -141 -29 -71 -57 -131 -63 -133 -5 -2 -26 29 -46 68 -35 70 -36
73 -22 113 12 37 22 46 92 84 58 31 83 39 92 31 7 -6 10 -15 6 -22z m107 -31
c25 -36 29 -49 20 -64 -5 -11 -10 -30 -10 -43 -1 -18 -22 -37 -96 -87 -52 -35
-98 -61 -101 -57 -7 7 82 245 104 275 23 33 49 26 83 -24z m-352 -113 c16 -3
32 -23 53 -64 27 -53 29 -64 19 -89 -7 -16 -10 -41 -7 -56 3 -18 -4 -43 -22
-75 -23 -43 -30 -48 -61 -48 -41 0 -53 -7 -69 -38 -19 -35 5 -76 47 -80 18 -2
39 2 47 8 10 9 20 8 37 -1 74 -38 78 -81 13 -127 -40 -28 -48 -30 -76 -20 -26
9 -35 7 -59 -10 l-28 -21 -62 21 c-34 11 -63 27 -66 34 -8 26 -14 39 -26 55
-9 13 -8 27 1 62 11 37 18 46 41 50 36 8 56 56 35 84 -29 38 -7 140 32 149 39
10 58 74 31 103 -11 10 -5 19 27 47 24 20 46 31 55 28 8 -4 25 -9 38 -12z
m-204 -151 c11 -17 -20 -126 -36 -129 -20 -4 -57 55 -50 80 3 11 19 29 36 39
35 21 42 23 50 10z m444 -131 c55 -40 61 -49 62 -80 0 -31 -6 -39 -49 -68 -71
-49 -83 -39 -97 80 -8 65 -9 97 -1 106 12 16 10 17 85 -38z m-115 -7 c19 -121
20 -163 4 -169 -24 -9 -86 37 -96 71 -9 33 -2 51 36 103 32 42 49 41 56 -5z
m750 -198 c67 -60 82 -90 50 -98 -10 -3 -93 -20 -185 -38 -119 -24 -171 -30
-178 -23 -8 8 9 44 58 125 57 95 72 113 90 111 12 -2 29 1 39 6 20 11 24 9
126 -83z m-503 60 c4 3 13 -9 18 -25 6 -16 22 -35 36 -41 19 -9 28 -24 37 -66
19 -84 10 -86 -126 -23 -104 48 -115 56 -115 79 1 37 82 93 117 80 14 -5 28
-7 33 -4z m-36 -180 c64 -30 116 -58 116 -62 -1 -27 -109 -86 -132 -71 -26 16
-76 9 -92 -14 -32 -45 -7 -98 45 -98 22 0 33 -10 59 -51 45 -70 34 -79 -76
-65 -72 10 -84 14 -107 41 l-25 31 16 155 15 154 31 16 c17 9 32 17 32 18 1 0
54 -24 118 -54z m-207 29 c6 -15 -25 -305 -33 -313 -8 -9 -22 15 -59 99 -29
67 -34 89 -26 102 6 10 11 29 11 43 0 18 12 33 42 55 47 34 56 36 65 14z
m-109 -228 c46 -105 47 -136 7 -136 -16 0 -28 9 -37 27 -28 59 -118 48 -118
-14 0 -59 63 -82 114 -42 21 17 29 19 41 9 8 -7 15 -16 15 -21 0 -4 -41 -33
-91 -63 -86 -51 -93 -54 -114 -40 -18 11 -24 27 -28 77 -6 58 -5 64 20 85 22
20 24 27 16 55 -8 28 -5 38 20 77 80 121 97 119 155 -14z m451 70 c18 -22 -37
-186 -66 -197 -19 -7 -26 -1 -54 42 -24 38 -29 53 -20 62 6 6 11 22 11 37 0
20 9 29 48 47 57 26 66 27 81 9z m1749 -148 c28 -28 7 -78 -33 -78 -27 0 -45
18 -45 45 0 27 18 45 45 45 12 0 26 -5 33 -12z"/>
<path d="M842 2108 c-7 -7 -12 -29 -12 -50 0 -39 19 -58 58 -58 44 0 69 71 36
104 -18 19 -65 21 -82 4z"/>
<path d="M800 1837 c-55 -28 -26 -112 36 -105 37 4 56 40 42 79 -5 16 -14 29
-18 29 -5 0 -14 2 -22 5 -7 3 -24 -1 -38 -8z"/>
<path d="M1636 4294 c-43 -43 5 -120 60 -96 13 7 29 23 36 36 24 55 -53 103
-96 60z"/>
<path d="M3606 4211 c-47 -47 -67 -74 -63 -85 10 -24 33 -19 72 15 l35 31 0
-136 0 -136 25 0 25 0 0 129 c0 72 4 132 8 135 5 3 22 -8 37 -24 33 -35 65
-40 65 -10 0 18 -114 150 -129 150 -4 0 -37 -31 -75 -69z"/>
<path d="M2819 4149 c-27 -27 -21 -67 14 -93 26 -19 30 -19 55 -5 19 10 28 24
30 48 6 62 -55 94 -99 50z"/>
<path d="M3035 4015 c-76 -83 -90 -116 -53 -123 9 -2 35 17 61 43 l44 46 6
-77 c4 -42 7 -126 7 -185 l0 -108 -96 -93 c-52 -51 -100 -94 -105 -96 -5 -2
-9 28 -9 67 l0 70 -72 50 c-253 173 -253 173 -250 214 6 70 -76 120 -140 86
-26 -14 -48 -67 -41 -102 11 -54 90 -86 144 -57 16 9 43 -6 169 -96 l150 -106
0 -109 c0 -81 3 -109 13 -109 6 0 74 60 150 133 l137 133 0 187 c0 103 3 187
7 187 4 0 26 -18 48 -40 43 -42 75 -46 75 -10 0 18 -144 180 -160 180 -5 0
-43 -38 -85 -85z"/>
<path d="M3854 4017 c-3 -8 -4 -52 -2 -98 l3 -84 97 -3 97 -3 3 88 c2 48 2 94
0 101 -6 18 -191 17 -198 -1z m144 -89 l3 -48 -45 0 -46 0 0 43 c0 53 5 59 50
55 34 -3 35 -4 38 -50z"/>
<path d="M992 3844 c-15 -10 -22 -25 -22 -48 0 -42 19 -58 62 -54 41 4 61 38
47 77 -17 43 -48 53 -87 25z"/>
<path d="M4243 3773 c-34 -7 -80 -55 -91 -96 -32 -116 92 -210 195 -147 97 59
75 209 -36 240 -20 5 -38 9 -41 9 -3 -1 -15 -4 -27 -6z m67 -68 c53 -27 53
-103 0 -130 -77 -40 -143 64 -76 122 32 27 38 28 76 8z"/>
<path d="M3242 3658 c-14 -14 -17 -145 -3 -166 5 -8 17 -12 27 -10 17 3 19 13
19 93 0 72 -3 90 -15 93 -9 1 -21 -3 -28 -10z"/>
<path d="M3607 3612 c-19 -21 -22 -45 -7 -73 16 -29 75 -26 96 5 36 56 -45
117 -89 68z"/>
<path d="M789 3550 c-25 -15 -32 -58 -14 -86 31 -47 105 -20 105 38 0 45 -50
72 -91 48z"/>
<path d="M4513 3538 c-25 -12 -44 -57 -36 -86 3 -14 -18 -40 -87 -104 l-91
-85 3 -124 c3 -102 6 -124 18 -124 12 0 16 21 18 117 l3 116 82 75 c74 67 85
74 115 70 87 -13 126 109 46 146 -30 13 -42 13 -71 -1z"/>
<path d="M3356 3428 c-79 -86 -93 -120 -49 -126 15 -2 31 9 54 37 18 23 36 41
41 41 4 0 8 -133 8 -296 l0 -296 -151 -156 -151 -157 -107 -6 c-58 -3 -109 -3
-113 1 -4 3 64 77 152 165 123 123 160 166 160 185 0 30 17 50 41 50 27 0 66
37 73 70 21 107 -110 171 -179 88 -22 -26 -26 -39 -22 -71 3 -23 16 -50 32
-67 20 -21 25 -33 19 -54 -4 -17 -73 -94 -175 -197 l-169 -170 -481 -2 c-402
-2 -483 0 -487 12 -16 48 -93 68 -139 36 -29 -20 -39 -75 -21 -112 29 -60 115
-67 147 -12 l16 29 635 0 635 0 170 170 170 170 5 313 5 312 41 -43 c43 -45
76 -53 82 -19 3 16 -142 187 -159 187 -4 0 -42 -37 -83 -82z m-104 -443 c10
-22 9 -29 -10 -47 -18 -19 -25 -20 -47 -10 -16 8 -25 20 -25 35 0 50 62 66 82
22z"/>
<path d="M3861 3462 c-13 -25 8 -56 35 -50 29 5 27 62 -3 66 -13 2 -26 -4 -32
-16z"/>
<path d="M2312 3430 c-28 -12 -55 -72 -46 -105 9 -36 50 -65 93 -65 36 0 36
-1 109 -134 67 -125 83 -166 65 -166 -5 0 -88 30 -185 66 l-178 67 0 34 c0 80
-102 114 -154 52 -35 -41 -34 -83 3 -120 35 -34 85 -39 122 -11 24 19 26 18
201 -47 153 -57 178 -69 178 -87 0 -12 9 -33 21 -48 16 -20 29 -26 59 -26 47
0 78 24 86 67 5 27 1 37 -25 63 -24 25 -38 31 -62 28 -31 -3 -33 0 -106 132
-69 125 -74 137 -64 166 17 47 13 80 -11 108 -26 29 -72 40 -106 26z"/>
<path d="M2615 3295 c-35 -34 -33 -78 4 -116 38 -38 74 -38 113 1 29 30 30 30
146 30 l116 0 26 -32 c52 -63 144 -32 144 48 0 71 -81 99 -136 47 -27 -26 -31
-26 -149 -26 -121 0 -122 0 -136 26 -27 52 -88 63 -128 22z"/>
<path d="M4502 3254 c-44 -31 -16 -104 40 -104 22 0 58 34 58 55 0 19 -44 65
-62 65 -8 0 -24 -7 -36 -16z"/>
<path d="M4662 3118 c-18 -18 -14 -73 6 -91 40 -37 102 -9 102 46 0 14 -7 33
-16 41 -18 19 -75 21 -92 4z"/>
<path d="M2803 3078 c-28 -14 -45 -61 -33 -93 11 -29 39 -45 77 -45 23 0 38
-13 83 -72 49 -65 90 -96 90 -70 0 5 -27 43 -60 85 -57 73 -59 78 -54 120 6
39 3 46 -21 65 -30 24 -49 26 -82 10z"/>
<path d="M3586 3057 c-14 -10 -16 -27 -14 -102 3 -89 3 -90 28 -90 25 0 25 1
28 91 3 99 -8 126 -42 101z"/>
<path d="M3910 2931 c0 -28 3 -31 31 -31 27 0 30 3 27 28 -2 21 -9 28 -30 30
-25 3 -28 0 -28 -27z"/>
<path d="M4442 2900 c-20 -12 -41 -37 -50 -60 l-17 -40 -223 0 -222 0 -260
-256 c-143 -141 -260 -261 -260 -266 0 -5 7 -11 15 -14 10 -4 93 71 252 226
131 128 248 239 261 247 19 13 53 14 230 8 l208 -7 21 -38 c29 -50 80 -74 145
-68 135 13 177 197 63 268 -43 27 -119 27 -163 0z m117 -55 c41 -21 57 -65 37
-103 -17 -32 -34 -42 -72 -42 -83 0 -108 106 -35 145 33 18 36 18 70 0z"/>
<path d="M2739 2779 c-16 -16 -20 -30 -17 -57 4 -33 -1 -43 -40 -84 l-45 -48
-228 0 c-185 0 -228 -3 -232 -14 -3 -8 -3 -17 0 -20 4 -3 110 -6 238 -6 l231
0 54 55 c47 47 60 55 92 55 42 0 68 27 68 72 0 60 -78 90 -121 47z"/>
<path d="M2498 2749 c-38 -21 -11 -74 34 -67 17 2 24 11 26 32 5 40 -23 57
-60 35z"/>
<path d="M4023 2654 c-7 -3 -13 -17 -13 -30 0 -24 1 -24 90 -24 73 0 92 3 97
16 3 8 2 19 -3 24 -11 9 -154 21 -171 14z"/>
<path d="M4800 2623 c-24 -9 -71 -56 -81 -80 l-9 -23 -429 0 c-236 0 -440 -4
-453 -9 -13 -5 -99 -82 -191 -171 l-168 -161 -602 4 -602 4 -70 -52 c-113 -84
-121 -88 -144 -76 -53 29 -117 -7 -128 -71 -5 -32 -1 -41 25 -68 53 -53 130
-35 148 35 3 14 4 35 1 46 -4 16 11 32 81 84 l87 64 617 1 616 0 169 160 168
160 346 0 c190 0 387 -3 437 -6 90 -7 92 -7 111 -40 69 -117 241 -82 257 52
12 97 -94 180 -186 147z m92 -90 c22 -20 23 -61 1 -85 -34 -38 -103 -11 -103
40 0 54 62 81 102 45z"/>
<path d="M630 2587 c-20 -10 -25 -20 -25 -52 0 -32 5 -42 26 -54 24 -13 29
-13 53 2 32 21 35 68 6 97 -23 23 -27 24 -60 7z"/>
<path d="M1487 2503 c-23 -6 -49 -57 -40 -80 11 -31 35 -53 60 -53 29 0 73 41
73 68 0 40 -51 76 -93 65z"/>
<path d="M4146 2355 c-23 -24 -26 -25 -172 -25 l-149 0 -135 -130 -135 -129
-616 -1 c-339 0 -618 -3 -622 -6 -3 -3 -3 -12 0 -20 4 -12 103 -14 627 -14
l622 0 136 130 136 130 145 0 c143 0 145 0 161 -25 33 -50 126 -21 126 39 0
67 -79 99 -124 51z"/>
<path d="M4494 2305 c-6 -15 20 -57 55 -89 12 -11 21 -23 21 -28 0 -4 -161 -8
-357 -8 l-356 0 -76 -72 c-79 -76 -90 -91 -71 -103 7 -5 39 19 79 59 l67 66
357 0 c196 0 357 -3 357 -6 0 -4 -18 -27 -41 -51 -42 -46 -45 -59 -16 -77 14
-9 31 3 97 69 44 44 80 84 80 91 0 17 -156 164 -174 164 -9 0 -19 -7 -22 -15z"/>
<path d="M3895 2026 c-30 -13 -51 -33 -70 -67 -10 -18 -36 -19 -745 -24 l-735
-4 -27 29 c-32 35 -69 39 -98 10 -20 -20 -26 -65 -12 -86 25 -38 92 -40 112
-4 11 20 22 20 754 20 l744 0 6 -23 c25 -101 165 -124 223 -38 44 65 18 157
-52 187 -42 17 -61 17 -100 0z m102 -82 c20 -31 10 -71 -22 -86 -55 -25 -111
24 -87 77 22 47 80 52 109 9z"/>
<path d="M4213 1989 c-9 -9 -13 -45 -13 -106 l0 -93 105 0 105 0 0 100 0 100
-64 0 c-35 0 -76 3 -92 6 -17 3 -34 0 -41 -7z m142 -59 c4 -6 4 -29 0 -50 -7
-40 -7 -40 -51 -40 l-44 0 0 50 0 50 44 0 c25 0 48 -5 51 -10z"/>
<path d="M2125 1790 c-15 -17 -16 -24 -7 -45 14 -29 61 -35 83 -9 11 14 65 15
486 12 l473 -4 95 -88 c93 -86 95 -88 95 -133 0 -38 5 -50 34 -79 30 -30 40
-34 85 -34 72 0 112 36 118 107 4 37 1 57 -12 77 -38 57 -129 75 -180 34 -32
-25 -26 -29 -138 75 l-84 77 -480 0 c-415 0 -482 2 -493 15 -17 21 -54 19 -75
-5z m1387 -217 c10 -9 18 -27 18 -40 0 -28 -33 -63 -60 -63 -11 0 -29 9 -40
20 -55 55 24 135 82 83z"/>
<path d="M3310 1775 c10 -12 40 -15 154 -15 l141 0 85 -85 85 -85 87 0 c66 0
88 -3 88 -13 0 -18 39 -53 68 -62 12 -3 38 -1 57 5 106 35 77 190 -35 190 -43
0 -90 -33 -90 -65 0 -12 -15 -15 -84 -15 l-84 0 -72 80 -72 80 -170 0 c-150 0
-169 -2 -158 -15z m751 -125 c40 -22 13 -89 -30 -75 -29 9 -36 42 -15 66 20
22 20 22 45 9z"/>
<path d="M650 1610 c-24 -24 -25 -48 -4 -78 18 -26 65 -30 84 -6 20 23 16 75
-5 90 -26 19 -52 17 -75 -6z"/>
<path d="M2275 1490 c-15 -24 12 -30 128 -30 l123 0 72 -73 c71 -72 72 -73 72
-126 0 -44 -4 -58 -25 -77 -55 -51 -34 -126 38 -132 74 -6 107 82 49 133 -25
22 -29 33 -31 88 l-2 62 -82 83 -82 82 -127 0 c-74 0 -129 -4 -133 -10z"/>
<path d="M2322 1345 c-32 -14 -42 -32 -42 -76 0 -33 31 -69 60 -69 14 0 20 -9
24 -32 30 -191 66 -432 66 -444 0 -26 -16 -14 -66 49 -67 84 -68 84 -54 117
17 41 5 77 -31 96 -25 12 -36 13 -59 4 -73 -30 -61 -140 15 -140 29 0 41 -9
99 -79 58 -70 65 -84 60 -110 -4 -17 -1 -44 6 -61 10 -25 10 -32 -6 -52 -12
-15 -27 -22 -42 -20 -33 5 -62 -25 -62 -63 0 -57 51 -82 99 -49 20 14 22 23
18 56 -7 53 18 98 54 98 67 0 88 106 25 130 -13 5 -27 17 -29 27 -3 10 -20
120 -38 244 l-32 226 21 21 c22 22 26 38 22 77 -5 47 -56 71 -108 50z"/>
<path d="M2108 1223 c-27 -30 -29 -57 -9 -97 l20 -37 -46 -130 c-26 -74 -51
-128 -57 -126 -6 2 -20 33 -30 70 -18 62 -18 68 -3 85 23 25 22 75 -2 96 -28
26 -82 18 -100 -15 -21 -38 -7 -77 33 -94 29 -12 35 -22 50 -79 18 -64 16 -86
-7 -86 -6 0 -46 16 -89 37 -50 23 -78 42 -78 52 0 9 -7 27 -16 40 -14 19 -23
22 -55 18 -28 -4 -42 0 -54 13 -14 15 -14 20 -1 45 24 45 1 85 -49 85 -41 0
-57 -19 -53 -62 2 -25 10 -36 33 -47 17 -7 40 -23 53 -34 19 -18 22 -27 16
-63 -6 -41 -5 -42 30 -54 31 -10 41 -9 62 4 23 16 28 15 110 -23 63 -30 85
-45 82 -57 -2 -10 -46 -34 -123 -66 l-119 -49 -33 18 c-31 16 -36 16 -61 3
-20 -12 -28 -25 -30 -52 -4 -49 20 -72 69 -65 32 4 43 -1 93 -41 44 -36 56
-51 56 -74 0 -15 9 -37 20 -48 52 -52 125 2 99 73 -11 30 -8 41 31 128 40 89
44 95 82 107 38 12 41 11 79 -19 26 -20 39 -39 39 -55 0 -13 5 -32 11 -42 17
-28 -33 -122 -65 -122 -66 0 -82 -111 -19 -127 54 -13 99 39 73 86 -9 18 -7
32 13 75 21 45 30 54 57 60 46 9 60 23 60 62 0 52 -48 86 -91 64 -18 -10 -27
-7 -63 18 -27 20 -43 40 -47 61 -4 17 -12 37 -18 45 -10 12 -3 42 35 150 28
82 52 136 60 136 29 0 65 25 71 49 16 59 -14 101 -72 101 -18 0 -39 -8 -47
-17z m-142 -516 c3 -8 -15 -57 -39 -109 -43 -92 -46 -95 -82 -101 -34 -6 -44
-2 -96 39 -81 64 -74 76 72 136 124 52 137 55 145 35z"/>
<path d="M1482 1214 c-25 -17 -31 -71 -10 -92 17 -17 64 -15 82 4 47 47 -17
127 -72 88z"/>
<path d="M1000 1190 c-38 -38 -19 -83 40 -101 34 -11 40 -16 40 -41 0 -29 30
-68 53 -68 27 0 57 31 57 59 0 42 -31 65 -75 57 -34 -7 -36 -6 -26 13 37 69
-35 135 -89 81z"/>
<path d="M1332 1114 c-43 -30 -20 -104 32 -104 52 0 76 75 34 104 -12 9 -27
16 -33 16 -6 0 -21 -7 -33 -16z"/>
<path d="M843 1084 c-15 -24 -15 -29 -2 -53 26 -46 109 -33 109 18 0 58 -75
83 -107 35z"/>
<path d="M1451 1021 c-25 -25 -26 -39 -5 -69 22 -32 69 -30 91 4 15 24 15 29
2 53 -19 34 -61 39 -88 12z"/>
<path d="M1556 848 c-21 -30 -20 -54 4 -78 41 -41 100 -13 100 48 0 52 -74 73
-104 30z"/>
<path d="M2006 601 c-24 -26 -17 -60 17 -84 l27 -21 28 21 c15 11 28 30 30 42
5 30 -25 61 -58 61 -15 0 -35 -9 -44 -19z"/>
<path d="M2485 515 c-14 -13 -25 -31 -25 -40 0 -19 44 -65 62 -65 54 0 80 84
36 114 -31 22 -45 20 -73 -9z"/>
<path d="M1616 428 c-21 -30 -20 -54 4 -78 39 -39 100 -14 100 42 0 53 -74 79
-104 36z"/>
</g>
</svg>
